<?xml version="1.0" encoding="UTF-8" standalone="no"?>
<!-- Generator: Adobe Illustrator 16.0.0, SVG Export Plug-In . SVG Version: 6.00 Build 0)  -->

<svg
   xmlns:dc="http://purl.org/dc/elements/1.1/"
   xmlns:cc="http://creativecommons.org/ns#"
   xmlns:rdf="http://www.w3.org/1999/02/22-rdf-syntax-ns#"
   xmlns:svg="http://www.w3.org/2000/svg"
   xmlns="http://www.w3.org/2000/svg"
   xmlns:sodipodi="http://sodipodi.sourceforge.net/DTD/sodipodi-0.dtd"
   xmlns:inkscape="http://www.inkscape.org/namespaces/inkscape"
   version="1.1"
   id="Layer_1"
   x="0px"
   y="0px"
   width="120.063px"
   height="100.224px"
   viewBox="0 0 498.063 348.224"
   enable-background="new 0 0 498.063 348.224"
   xml:space="preserve"
   sodipodi:docname="Redirect Ninja.svg"
   inkscape:export-filename="C:\Users\Nicholas\Downloads\Yates Gear NZ Ltd\Photos\Redirect Ninja.png"
   inkscape:export-xdpi="400"
   inkscape:export-ydpi="400"
   inkscape:version="0.92.0 r15299"><metadata
     id="metadata33"><rdf:RDF><cc:Work
         rdf:about=""><dc:format>image/svg+xml</dc:format><dc:type
           rdf:resource="http://purl.org/dc/dcmitype/StillImage" /><dc:title></dc:title></cc:Work></rdf:RDF></metadata><defs
     id="defs31" /><sodipodi:namedview
     pagecolor="#ffffff"
     bordercolor="#666666"
     borderopacity="1"
     objecttolerance="10"
     gridtolerance="10"
     guidetolerance="10"
     inkscape:pageopacity="0"
     inkscape:pageshadow="2"
     inkscape:window-width="1920"
     inkscape:window-height="1001"
     id="namedview29"
     showgrid="false"
     inkscape:zoom="2.3547254"
     inkscape:cx="83.377589"
     inkscape:cy="79.360833"
     inkscape:window-x="-9"
     inkscape:window-y="-9"
     inkscape:window-maximized="1"
     inkscape:current-layer="Layer_1" /><g
     id="g26"><path
       d="M201.168,261.764l39.666,27.667c0,0,0.416,5.25-2.209,8.375s-6.875,4.375-6.875,4.375l-39.625-28.376L201.168,261.764z"
       id="path2" /><path
       fill="#E5C4B5"
       d="M206.563,265.555c0,0-15.598,17.966-1.848,24.966s23.348-9.966,23.348-9.966L206.563,265.555z"
       id="path4" /><path
       d="M193.383,207.36l24.811,41.512c0,0-1.776,4.958-5.452,6.729c-3.677,1.772-8.065,1.167-8.065,1.167l-24.482-42.142   L193.383,207.36z"
       id="path6" /><polygon
       fill="#D6D6D6"
       points="179.385,211.246 190.67,205.635 66.126,0 67.46,21.804  "
       id="polygon8" /><path
       fill="#E5C4B5"
       d="M201.36,220.557c0,0-20.624,9.546-10.667,21.334c9.955,11.788,23.334,0,23.334,0L201.36,220.557z"
       id="path10" /><polygon
       fill="#D6D6D6"
       points="190,271.055 197.986,261.305 0,124.93 10.168,144.263  "
       id="polygon12" /><g
       id="g20"><path
         d="M305.23,249.555c0,0,8.128,21.117,6.423,36.97s-8.429,29.731-8.429,29.731l28.09,31.968c0,0,10.309-11.667,7.321-26.667    s-6.987-16-6.987-16s27.316-11.338,41.658-41.669s8.256-55.666,8.256-55.666L305.23,249.555z"
         id="path14" /><path
         d="M280.907,189.172c-8.256-2.454-17.384-6.309-24.839-12.339c-2.15-1.739-4.173-3.674-6.075-5.729l-48.633,49.452    l12.667,21.334L280.907,189.172z"
         id="path16" /><path
         d="M498.063,26.305c0,0-56.25-7.5-89.75,10.5c-27.301,14.669-39.988,41.786-43.748,51.321    c-2.668-1.292-5.66,0.206-8.252-0.571c-5-1.5-11.904-10.911-11.904-10.911l0.008,0.045c-13.57-23.377-38.904-36.959-64.607-32.06    c-33.449,6.376-54.411,41.536-47.764,78.71c0.817,4.572,1.889,9.182,3.14,13.759c3.567,8.538,11.033,23.78,21.833,32.515    c15.446,12.493,41.748,13.927,42.004,13.941l-92.459,82l21.5,15c0,0,127.75-67.5,150.021-79.25s28.729-32.5,20.479-59.695    c-5.711-18.829-23.141-21.676-33.328-21.646c3.75-3.522,6.408-8.661,5.328-16.908c-0.236-1.805-0.502-3.39-0.791-4.804    c8.059,2.512,22.91,6.436,40.291,7.675c26.25,1.871,52.75-5.121,52.75-5.121s-4-5.25-6-14.25s0-24.5,0-24.5    s-19.75,20.25-41.5,27.25c-15.842,5.099-36.184,6.351-46.07,6.653c-0.953-3.646-2.109-5.748-3.379-6.931    c7.068-6.747,28.08-25.079,53.199-30.872c31-7.15,70.5,1.399,70.5,1.399s-0.75-7.75,0.5-15.922S498.063,26.305,498.063,26.305z"
         id="path18" /></g><path
       fill="#FFFFFF"
       d="M284.896,123.058c0,0-23.541-12.455-23.084,0.098C262.268,135.708,284.896,123.058,284.896,123.058z"
       id="path22" /><path
       fill="#FFFFFF"
       d="M307.785,122.591c0,0,26.771-14.164,26.252,0.11C333.518,136.978,307.785,122.591,307.785,122.591z"
       id="path24" /></g><path
     style="fill:none;stroke:#d40000;stroke-width:4.1483469;stroke-linecap:butt;stroke-linejoin:bevel;stroke-miterlimit:4;stroke-dasharray:12.44504099, 4.14834700000000020;stroke-dashoffset:0;stroke-opacity:1"
     d="M 71.789746,379.3514 85.883436,199.65682 8.3681298,221.67821"
     id="path4510"
     inkscape:connector-curvature="0"
     sodipodi:nodetypes="ccc" /><ellipse
     style="opacity:1;fill:none;fill-opacity:1;stroke:#000000;stroke-width:4.1483469;stroke-linejoin:bevel;stroke-miterlimit:4;stroke-dasharray:none;stroke-dashoffset:0;stroke-opacity:1"
     id="path4512"
     cx="4.844707"
     cy="222.55908"
     rx="3.5234232"
     ry="3.523423" /><path
     sodipodi:nodetypes="ccc"
     inkscape:connector-curvature="0"
     id="path4514"
     d="M 71.789746,379.3514 124.64109,123.90323 7.487274,79.860432"
     style="fill:none;stroke:#d60000;stroke-width:4.1483469;stroke-linecap:butt;stroke-linejoin:bevel;stroke-miterlimit:4;stroke-dasharray:12.44504099, 4.148347;stroke-dashoffset:0;stroke-opacity:1" /><ellipse
     ry="3.523423"
     rx="3.5234232"
     cy="78.979599"
     cx="4.844707"
     id="ellipse4516"
     style="opacity:1;fill:none;fill-opacity:1;stroke:#000000;stroke-width:4.1483469;stroke-linejoin:bevel;stroke-miterlimit:4;stroke-dasharray:none;stroke-dashoffset:0;stroke-opacity:1" /></svg>